<?xml version="1.0" encoding="UTF-8"?>
<svg width="14px" height="14px" viewBox="0 0 12 12" version="1.1" xmlns="http://www.w3.org/2000/svg" xmlns:xlink="http://www.w3.org/1999/xlink">
  <g id="Symbols" stroke="none" stroke-width="1" fill="none" fill-rule="evenodd">
    <g id="Icons/Close-with-BG">
      <rect id="BG" fill-opacity="0" fill="#FFFFFF" x="0" y="0" width="1" height="1" rx="0.5">
      </rect>
      <circle id="BG" fill="#5d6c85" cx="6" cy="6" r="6">
      </circle>
      <path d="M7.31715729,4.11715729 C7.473367,3.96094757 7.726633,3.96094757 7.88284271,4.11715729 C8.03905243,4.273367 8.03905243,4.526633 7.88284271,4.68284271 L7.88284271,4.68284271 L6.565,6 L7.88284271,7.31715729 C8.01952621,7.45384079 8.03661165,7.664833 7.93409903,7.82009368 L7.88284271,7.88284271 C7.726633,8.03905243 7.473367,8.03905243 7.31715729,7.88284271 L7.31715729,7.88284271 L6,6.565 L4.68284271,7.88284271 C4.54615921,8.01952621 4.335167,8.03661165 4.17990632,7.93409903 L4.11715729,7.88284271 C3.96094757,7.726633 3.96094757,7.473367 4.11715729,7.31715729 L4.11715729,7.31715729 L5.435,6 L4.11715729,4.68284271 C3.98047379,4.54615921 3.96338835,4.335167 4.06590097,4.17990632 L4.11715729,4.11715729 C4.273367,3.96094757 4.526633,3.96094757 4.68284271,4.11715729 L4.68284271,4.11715729 L6,5.435 Z" id="Icon" fill="#fafafa">
      </path>
    </g>
  </g>
</svg>
